<svg height="800" width="800" xmlns="http://www.w3.org/2000/svg" viewBox="0 0 512 512"><path d="M394.717 75.189H117.284a8.142 8.142 0 00-8.143 8.143V229.98a8.142 8.142 0 008.143 8.143h36.615c4.498 0 8.143-3.645 8.143-8.143s-3.645-8.143-8.143-8.143h-28.471V91.476h261.147v130.362H189.838a8.142 8.142 0 00-8.143 8.143 8.142 8.142 0 008.143 8.143h204.878a8.142 8.142 0 008.143-8.143V83.332a8.14 8.14 0 00-8.142-8.143z"/><path d="M436.638 311.743c15.808 0 28.667-12.86 28.667-28.667s-12.86-28.667-28.667-28.667h-1.204V50.758a8.142 8.142 0 00-8.143-8.143h-53.923c-4.498 0-8.143 3.645-8.143 8.143s3.645 8.143 8.143 8.143h45.78v195.508H92.854V58.901h243.444c4.498 0 8.143-3.645 8.143-8.143s-3.645-8.143-8.143-8.143h-48.169V32.128C288.128 14.414 273.716 0 256 0c-17.716 0-32.128 14.413-32.128 32.128v10.486H84.71a8.142 8.142 0 00-8.143 8.143v203.651h-1.204c-15.808 0-28.667 12.86-28.667 28.667 0 15.807 12.86 28.667 28.667 28.667h91.165l-13.172 24.43H92.048c-14.967 0-27.144 12.177-27.144 27.144 0 14.967 12.177 27.144 27.144 27.144h32.037l-43.986 81.581c-7.103 13.175-2.164 29.672 11.009 36.774 13.034 7.027 29.757 2.012 36.776-11.009l57.878-107.346h140.477s57.839 107.276 57.878 107.346c7.007 12.996 23.784 18.016 36.775 11.01 13.174-7.103 18.113-23.6 11.01-36.775l-43.986-81.581h32.037c14.967 0 27.144-12.177 27.144-27.144 0-14.967-12.177-27.144-27.144-27.144h-61.308l-13.172-24.43 91.165.001zM240.159 32.128c0-8.735 7.106-15.841 15.841-15.841s15.841 7.106 15.841 15.841v10.486h-31.683V32.128zm-126.61 457.95c-2.803 5.199-9.522 7.202-14.71 4.404-5.27-2.841-7.245-9.44-4.404-14.71l48.153-89.309h24.671l-53.71 99.615zm304.017-10.306c2.841 5.27.866 11.869-4.405 14.711-5.216 2.813-11.9.807-14.709-4.405l-53.71-99.616h24.671l48.153 89.31zm2.386-127.313c5.987 0 10.858 4.872 10.858 10.858 0 5.987-4.871 10.858-10.858 10.858H92.048c-5.987 0-10.858-4.871-10.858-10.858s4.871-10.858 10.858-10.858h327.904zM171.86 336.173l13.17-24.429h24.671l-13.17 24.429H171.86zm43.173 0l13.172-24.43h55.591l13.173 24.43h-81.936zm87.267-24.429h24.671l13.17 24.429H315.47l-13.17-24.429zM75.363 295.456c-6.826 0-12.38-5.554-12.38-12.38 0-6.826 5.554-12.38 12.38-12.38h9.327l.021.001h342.58l.021-.001h9.327c6.826 0 12.38 5.554 12.38 12.38 0 6.826-5.554 12.38-12.38 12.38H75.363z"/></svg>