<svg width="800" height="800" viewBox="0 0 512 512" xmlns="http://www.w3.org/2000/svg"><path d="M456.333 425.571H55.667C36.551 425.571 21 410.02 21 390.904v-30.333a5 5 0 015-5h460a5 5 0 015 5v30.333c0 19.116-15.552 34.667-34.667 34.667zM31 365.571v25.333c0 13.602 11.065 24.667 24.667 24.667h400.667c13.602 0 24.667-11.065 24.667-24.667v-25.333H31z"/><path d="M486 365.571H26a5 5 0 01-5-5v-223.5c0-22.883 18.617-41.5 41.5-41.5h174.002a5 5 0 010 10H62.5c-17.369 0-31.5 14.131-31.5 31.5v218.5h450v-218.5c0-17.369-14.131-31.5-31.5-31.5H335.497a5 5 0 110-10H449.5c22.883 0 41.5 18.617 41.5 41.5v223.5a5 5 0 01-5 5z"/><path d="M177.508 214.063a4.998 4.998 0 01-4.789-6.436l21.213-70.71a5 5 0 011.253-2.099L311.858 18.145c7.555-7.555 17.6-11.716 28.283-11.716 10.685 0 20.729 4.161 28.284 11.716 7.556 7.555 11.717 17.6 11.717 28.284 0 10.685-4.161 20.729-11.717 28.285L251.754 191.386a4.99 4.99 0 01-2.099 1.253l-70.71 21.213a4.961 4.961 0 01-1.437.211zm25.639-73.066l-18.182 60.609 60.609-18.183L361.355 67.642c5.666-5.667 8.787-13.2 8.787-21.213 0-8.013-3.121-15.547-8.787-21.213-5.666-5.667-13.2-8.787-21.214-8.787-8.013 0-15.547 3.121-21.213 8.787L203.147 140.997z"/><path d="M216.398 167.913c-5.762 0-11.523-2.193-15.91-6.579-8.772-8.773-8.772-23.047 0-31.82a5.001 5.001 0 017.071 7.071c-4.874 4.874-4.874 12.804 0 17.678s12.804 4.874 17.678 0a5 5 0 117.071 7.071c-4.386 4.386-10.148 6.579-15.91 6.579z"/><path d="M241.147 192.673c-6.01 0-11.66-2.341-15.91-6.59s-6.59-9.9-6.59-15.91 2.341-11.661 6.59-15.91l62.228-62.227a5 5 0 017.07 7.071l-62.227 62.227a12.419 12.419 0 00-3.662 8.839c0 3.338 1.3 6.478 3.662 8.838a12.418 12.418 0 008.838 3.662c3.339 0 6.478-1.3 8.839-3.662a5.001 5.001 0 017.072 7.071 22.351 22.351 0 01-15.91 6.591zM350.749 90.32a4.983 4.983 0 01-3.535-1.464l-49.498-49.498a5 5 0 117.07-7.071l49.498 49.498a5 5 0 01-3.535 8.535zM366 315.571h-80c-16.542 0-30-13.458-30-30s13.458-30 30-30h110c11.028 0 20-8.972 20-20v-1.508c0-11.028-8.972-20-20-20H177.508a5 5 0 010-10H396c16.542 0 30 13.458 30 30v1.508c0 16.542-13.458 30-30 30H286c-11.028 0-20 8.972-20 20s8.972 20 20 20h80c2.762 0 5 2.238 5 5s-2.238 5-5 5zm-190 5H26a5 5 0 110-10h150a5 5 0 110 10zm0-30H26a5 5 0 110-10h150a5 5 0 110 10zm0-30H26a5 5 0 110-10h150a5 5 0 010 10zm135 225H201a5 5 0 01-5-5v-60a5 5 0 015-5h110a5 5 0 015 5v60a5 5 0 01-5 5zm-105-10h100v-50H206v50z"/><path d="M286 485.571h-60a5 5 0 01-5-5v-60a5 5 0 015-5h60a5 5 0 015 5v60a5 5 0 01-5 5zm-55-10h50v-50h-50v50z"/><path d="M326 505.571H186c-8.271 0-15-6.729-15-15s6.729-15 15-15h140c8.271 0 15 6.729 15 15s-6.729 15-15 15zm-140-20c-2.757 0-5 2.243-5 5s2.243 5 5 5h140c2.757 0 5-2.243 5-5s-2.243-5-5-5H186z"/></svg>