<svg xmlns="http://www.w3.org/2000/svg" id="Capa_1" data-name="Capa 1"
    viewBox="50.44 354.3 1099.13 491.43">
    <defs>
        <style>.cls-1{fill:#fff;}</style>
    </defs>
    <path class="cls-1"
        d="M179.19,737.75A64.21,64.21,0,0,1,135.4,754.3C117,754.3,101.72,748,88.67,735S69.3,706.67,69.3,688.19s6.33-33.65,19.37-46.65S117,622.21,135.4,622.21c16.89,0,31.21,5.41,43.79,16.54l3.29,2.91,14.14-12.53-4.06-3.71a82.41,82.41,0,0,0-57.16-22.19c-23.42,0-43.66,8.39-60.14,24.94s-24.82,36.74-24.82,60c0,23.45,8.35,43.68,24.83,60.14s36.7,24.82,60.13,24.82a82.59,82.59,0,0,0,57.15-22.06l4.09-3.72-14.16-12.52Z" />
    <path
        class="cls-1"
        d="M259.82,605.12l-61,166.16h19.94l25.41-68.74h47.11l25,68.74H336.1L275.81,605.12ZM251,683.91l16.78-46.07,16.7,46.07Z" />
    <polygon
        class="cls-1"
        points="481.19 604.91 481.03 605.12 469.81 605.12 415.78 675.94 361.66 605.12 350.41 605.12 350.27 604.93 350.27 605.12 341.43 605.12 341.43 771.28 360.18 771.28 360.18 634.22 415.79 706.97 471.27 634.24 471.27 771.28 490.03 771.28 490.03 605.12 481.19 605.12 481.19 604.91" />
    <path
        class="cls-1"
        d="M555.77,605.12l-61,166.16h19.94l25.42-68.74h47.12l25,68.74h19.83L571.77,605.12ZM547,683.91l16.79-46.07,16.69,46.07Z" />
    <polygon
        class="cls-1"
        points="661.45 605.12 642.7 605.12 642.7 771.28 721.01 771.28 721.01 752.52 661.45 752.52 661.45 605.12" />
    <polygon
        class="cls-1"
        points="732.55 771.28 820.58 771.28 820.58 752.53 751.3 752.53 751.3 697.57 820.58 697.57 820.58 678.82 751.3 678.82 751.3 623.86 820.58 623.86 820.58 605.12 806.42 605.12 789.54 612.16 772.94 605.12 732.55 605.12 732.55 771.28" />
    <polygon
        class="cls-1"
        points="1130.82 605.12 1130.82 740.14 1034.45 605.12 1015.78 605.12 1015.78 771.28 1034.53 771.28 1034.53 639.69 1128.46 771.28 1149.57 771.28 1149.57 605.12 1130.82 605.12" />
    <path
        class="cls-1"
        d="M971.54,589.93c-10.1-21.12-23.11-40.78-36-60.25-23.36-35.16-45.46-72.69-77.33-100.91-22.58-20-49.15-35-75.42-49.47-28-15.46-56.23-23.58-88.29-24.75a484.72,484.72,0,0,0-100.7,7.3c-32.25,5.76-58.83,24.16-84.64,43.2a57.79,57.79,0,0,0-6.19-5.31c-17.49-12.93-36.52-6.53-49.51,8.53C446.78,416,441.8,425,435.05,432.59c-8.28,9.36-20.9,14.81-31.36,21.28-22.83,14.12-31.86,37.34-37.93,62.49-3.89,16.16-10.53,42.51.69,56.86,13.27,17,48.82,19.58,68.08,20.48a760.8,760.8,0,0,0,88.05-1.16,71.47,71.47,0,0,0,29.64-8.26c5.22-2.85,9.86-6.84,14.93-9.95,6.31-3.86,14.08-3.6,21.4-3.24-3,9.53-7.92,17.85-15.49,21.55-15.76,7.67-4.53,20.05,1.86,29.77,6.84,10.41,1.22,33.24,17.63,37.07,12,2.8,17.86-6.72,21.49-16.76,5.28-14.6,5.81-31.21,9.83-46.23,2.35-8.82,4.78-17.63,7.13-26.45.15,0,.29.05.44.05,26.32.3,52.44,3.87,78.7,5.14,26,1.25,50.05-5.17,75.19-10,0,.26-.06.52-.11.78-2.17,13.34-18.1,21-19.05,34.84-1.34,19.45,27.91,24.63,40.46,14.79a90.26,90.26,0,0,0,24.08-29.55c2.8-5.47,2.47-12.18,2.35-18.08a29.83,29.83,0,0,1,.81-7.36c15.86,13.49,31,27.9,45.5,42.82a369.88,369.88,0,0,1,29.74,34.16c-11.07-1-22.73,1.53-32.53,5.77-24.26,10.5-35.8,36.43-36.1,61.51-.76,65.38,85.67,88.52,128.5,48.15,45.6-43,25.88-114.33,2.56-163.11M946.36,749.8c-29.32,18.66-74,3.56-86.47-28.49-12.58-32.44,11.93-69.06,46.68-67.32,15.26.77,22.58,12.2,23.67,26.22.66,8.5-2,17-9.48,21.51-4.26,2.61-13,2.85-15.09-2.71-3.76-9.91-19.82-5.61-16,4.42,7,18.36,31.35,21.82,45.27,8.51,6.91-6.6,10.75-15.64,11.82-25.13,4.5-30.63-25.15-61.65-43.63-82.28a590.3,590.3,0,0,0-61-58.68,10,10,0,0,0-1.46-1c2-3.68,4.14-7.34,5.86-11.09,3.33-7.24-7.41-13.57-10.75-6.28-3.75,8.18-9.32,15.76-12.3,24.27-3.42,9.78-.37,22-5,31-4.26,8.33-11,15.57-17.8,21.86-4.55,4.2-10,3.73-15.59,2.64-12.67-2.49-.27-16.16,2.13-19.35,12.86-17.11,11.65-33.66,10.41-54.42-.87-14.42,2-24.79,16.07-30.4,8.84-3.51,18.82-3.92,28.2-3.66,8,.23,8-12.24,0-12.46-18.28-.5-48.4,3.05-54.71,24.35-3.58,12.1-1.83,24.6-1.27,37.05a6.7,6.7,0,0,0-.87.08c-25.27,4.65-48.92,11-74.89,10.2-25-.8-49.85-4.42-74.88-5,2.08-8.41,4-16.86,5.67-25.38,2.3-11.91,3.91-26.68-8.95-32.8-13.77-6.55-31.37,5.74-44.22,9.51-7.7,2.25-4.42,14.27,3.3,12,6-1.77,37.33-18.15,39-5.12,1.59,12.66-4.32,27.21-7.14,39.46-6.32,27.45-13,54.73-19.18,82.19-.58,2.56-6.06,22.26-11.3,8.43-2.3-6.08-2.55-13.08-4.12-19.39-1.1-4.37-3.72-8.15-6.35-11.68-4.89-6.59-3.88-5.26,1.67-9.87,17.14-14.27,22.62-43.06,21.61-64.35-.38-8-12.84-8-12.45,0a111.09,111.09,0,0,1-.76,18.08c-17.33-.28-29.29,2.18-43.91,12.49-17,11.94-39.27,9.49-59,9.15-22-.37-43.88,1.78-65.87.08-10.84-.85-21.32-4.06-31.55-7.54-5.59-1.9-9-3.52-11-5.79,1.22,0,2.44,0,3.61,0a49.32,49.32,0,0,1,6.55.26c1.58.09,3.15.21,4.69.32,3.76.29,7.38.56,11.09.5,2.49,0,5,0,7.52,0,1.59,0,3.2,0,4.82,0a95.25,95.25,0,0,0,10.79-.5c11.74-1.44-1.84-1.3,9.68-1.85l2.78-.13a3.34,3.34,0,0,0,3.16-3.48,3.29,3.29,0,0,0-3.48-3.16l-2.77.13c-11.64.56,1.81.43-10.15,1.89a117,117,0,0,1-14.74.42c-2.59,0-5.16-.06-7.72,0-3.47,0-6.87-.21-10.49-.48-1.57-.12-3.17-.23-4.55-.31a50.7,50.7,0,0,0-7.19-.29c-2,0-4.24,0-6.26-.21a51.24,51.24,0,0,1-.24-6.54,143,143,0,0,1,17.83-66.38c9.09-16.06,30.92-21.69,44.5-33,12.22-10.21,19.07-24.52,30.08-35.81,9.12-9.35,20.77-4.08,29,3.51,8.53,7.88,9.57,21.29,9.79,32.08s16.84,10.71,16.61,0c-.25-11.67-2.1-22.34-6.79-31.68,17.74-13.09,35.69-26.05,56.33-34.21,25.27-10,53.33-9.78,80-11.76,23.11-1.73,46.32-2.34,69.22,1.74,25.1,4.48,46.91,17.52,68.74,29.95,34.39,19.61,66.05,43,88.75,75.91q23.36,33.85,46,68.22c22.51,34.28,42.29,70.4,49.92,111.2,6.21,33.25-1.19,71.07-31.45,90.34" />
    <path
        class="cls-1"
        d="M453.53,493.07A11.91,11.91,0,1,0,465.44,505a11.91,11.91,0,0,0-11.91-11.91" />
    <path
        class="cls-1"
        d="M449.63,467.7A37.28,37.28,0,1,0,486.91,505a37.31,37.31,0,0,0-37.28-37.27m0,67.91A30.63,30.63,0,1,1,480.27,505a30.67,30.67,0,0,1-30.64,30.64" />
    <path
        class="cls-1"
        d="M366.09,548.31s61.21,5.23,85.43,6.16c3.44.13,4.43,1.94,4.43,3.11s-.48,2.95-4.05,3.52c-22.84,3.65-78.67,16.31-80.17,15" />
    <path
        class="cls-1"
        d="M383.9,555.6c-10.83-.09-21.62,2.07-32.55,2.34-10,.22-31-.45-31.63-.53-16.89-2.25-33.5-9.16-50.2-12.85a27.79,27.79,0,0,0-16.34,1.18,7.28,7.28,0,0,0-3.55,2.9c-.32,0-.63,0-.94,0-8.95.54-10.9,14.46-3,17.89a8,8,0,0,0,2.89.67c3.84,3,9.08,3.14,14.25,3.34,11,.39,21.86,1.45,32.84,2.33,14.21,1.15,30.34-2.06,44.6-2.35,14-.28,28.51-2.51,42.39-2.41,8.06.07,9.39-12.48,1.25-12.54" />
    <polygon
        class="cls-1"
        points="180.32 822.23 165.65 796.87 158.82 796.87 158.82 845.24 166.53 845.24 166.53 813.75 180.32 837.54 194.06 813.76 194.06 845.24 201.76 845.24 201.76 796.87 194.93 796.87 180.32 822.23" />
    <path
        class="cls-1"
        d="M244.68,796.88l-17.59,48.36h8.22l6-16.53H252.5l6,16.53h8.19l-17.59-48.36Zm5,24.13h-5.6l2.79-7.69Z" />
    <path
        class="cls-1"
        d="M315.39,825.41a16.75,16.75,0,0,0,0-23.65,17.07,17.07,0,0,0-10.1-4.89H291.2v48.37h7.7v-15h4.23l9.34,15h9.31l-10.65-16.4a19.05,19.05,0,0,0,4.26-3.43m-16.49-20.8h4.69a9,9,0,0,1,0,17.95H298.9Z" />
    <polygon
        class="cls-1"
        points="373.25 796.87 363.54 796.87 353.75 809.93 353.75 796.87 346.04 796.87 346.04 845.24 353.75 845.24 353.75 824.07 367.32 845.24 376.63 845.24 358.28 816.95 373.25 796.87" />
    <polygon
        class="cls-1"
        points="401.91 845.24 428.73 845.24 428.73 837.51 409.61 837.51 409.61 824.89 428.73 824.89 428.73 817.19 409.61 817.19 409.61 804.58 428.73 804.58 428.73 796.88 401.91 796.88 401.91 845.24" />
    <polygon
        class="cls-1"
        points="452.12 804.58 463 804.58 463 845.24 470.74 845.24 470.74 804.58 481.62 804.58 481.62 796.88 452.12 796.88 452.12 804.58" />
    <rect
        class="cls-1" x="507.05" y="796.88" width="7.7" height="48.36" />
    <polygon class="cls-1"
        points="567.91 827.95 549.96 796.88 543.13 796.88 543.13 845.24 550.83 845.24 550.83 813.76 569.05 845.24 575.64 845.24 575.64 796.88 567.91 796.88 567.91 827.95" />
    <path
        class="cls-1"
        d="M627.35,804.14c4.29,0,8.48,1.8,12.47,5.34l.56.49,5.75-5.23-.67-.61c-5.66-5.16-11.75-7.78-18.11-7.78a24.69,24.69,0,1,0,0,49.38,24.12,24.12,0,0,0,17.07-7.11l.25-.25V820.58H637V835.1a15.6,15.6,0,0,1-9.62,2.9,16.93,16.93,0,0,1,0-33.86" />
    <path
        class="cls-1"
        d="M719.36,796.88h-5.27v48.36h5.27c7.78,0,13.95-2.29,18.33-6.7a24.78,24.78,0,0,0,0-35c-4.38-4.4-10.55-6.65-18.33-6.69m17.79,24.18a16.41,16.41,0,0,1-4.95,12,15,15,0,0,1-10.41,4.38V804.71a15.07,15.07,0,0,1,10.41,4.35,16.5,16.5,0,0,1,4.95,12" />
    <rect
        class="cls-1" x="771.83" y="796.88" width="7.7" height="48.36" />
    <path class="cls-1"
        d="M831.85,804.14c4.29,0,8.48,1.8,12.47,5.34l.56.49,5.75-5.23-.67-.61c-5.66-5.16-11.76-7.78-18.11-7.78a24.69,24.69,0,1,0,0,49.38,24.14,24.14,0,0,0,17.07-7.11l.25-.25V820.58h-7.7V835.1a15.6,15.6,0,0,1-9.62,2.9,16.93,16.93,0,0,1,0-33.86" />
    <rect
        class="cls-1" x="877.84" y="796.88" width="7.7" height="48.36" />
    <polygon class="cls-1"
        points="910.27 804.58 921.16 804.58 921.16 845.24 928.89 845.24 928.89 804.58 939.78 804.58 939.78 796.88 910.27 796.88 910.27 804.58" />
    <path
        class="cls-1"
        d="M978.36,796.88l-17.59,48.36H969l6-16.53h11.22l6,16.53h8.19l-17.59-48.36Zm5,24.13h-5.6l2.79-7.69Z" />
    <polygon
        class="cls-1"
        points="1032.57 837.51 1032.57 796.88 1024.87 796.88 1024.87 845.24 1049.27 845.24 1049.27 837.51 1032.57 837.51" />
</svg>