<?xml version="1.0" encoding="iso-8859-1"?>
<!-- Uploaded to: SVG Repo, www.svgrepo.com, Generator: SVG Repo Mixer Tools -->
<svg fill="#000000" height="800px" width="800px" version="1.1" id="Layer_1" xmlns="http://www.w3.org/2000/svg" xmlns:xlink="http://www.w3.org/1999/xlink" 
	 viewBox="0 0 496 496" xml:space="preserve">
<g>
	<g>
		<g>
			<path d="M456,376c22.056,0,40-17.944,40-40c0-22.056-17.944-40-40-40h-24V84.688L347.312,0H64v296h-2.424l-60,40l60,40H456z
				 M448,312h8c13.232,0,24,10.768,24,24s-10.768,24-24,24h-8V312z M432,360h-16v-48h16V360z M352,27.312L404.688,80H352V27.312z
				 M80,16h256v80h80v200H296v-39.44l8.232-57.648L277.272,136h-58.544l-26.96,62.912L200,256.56V296H80V16z M214.936,248
				l-6.704-46.912L229.272,152H240v33.472c-9.288,3.312-16,12.112-16,22.528c0,13.232,10.768,24,24,24s24-10.768,24-24
				c0-10.416-6.712-19.216-16-22.528V152h10.728l21.04,49.088L281.064,248H214.936z M280,264v32h-64v-32H280z M248,200
				c4.416,0,8,3.584,8,8s-3.584,8-8,8c-4.416,0-8-3.584-8-8S243.584,200,248,200z M80,312h320v16H80V312z M80,344h320v16H80V344z
				 M64,313.616v44.768L30.424,336L64,313.616z"/>
			<path d="M0,496h496V392H0V496z M16,408h464v72h-32v-40h-16v40h-32v-24h-16v24h-32v-40h-16v40h-32v-24h-16v24h-32v-40h-16v40h-32
				v-24h-16v24h-32v-40h-16v40h-32v-24H96v24H64v-40H48v40H16V408z"/>
			<path d="M248,112c50.768,0,92.344,39.632,95.672,89.576C334.552,204.976,328,213.704,328,224c0,13.232,10.768,24,24,24
				s24-10.768,24-24c0-10.536-6.872-19.416-16.336-22.632C356.2,142.704,307.52,96,248,96c-59.52,0-108.2,46.704-111.664,105.368
				C126.872,204.584,120,213.464,120,224c0,13.232,10.768,24,24,24s24-10.768,24-24c0-10.296-6.552-19.024-15.672-22.424
				C155.656,151.64,197.232,112,248,112z M352,216c4.416,0,8,3.584,8,8s-3.584,8-8,8c-4.416,0-8-3.584-8-8S347.584,216,352,216z
				 M144,232c-4.416,0-8-3.584-8-8s3.584-8,8-8s8,3.584,8,8S148.416,232,144,232z"/>
		</g>
	</g>
</g>
</svg>