<?xml version="1.0" encoding="iso-8859-1"?>
<!-- Uploaded to: SVG Repo, www.svgrepo.com, Generator: SVG Repo Mixer Tools -->
<svg fill="#000000" height="800px" width="800px" version="1.1" id="Layer_1" xmlns="http://www.w3.org/2000/svg" xmlns:xlink="http://www.w3.org/1999/xlink" 
	 viewBox="0 0 512 512" xml:space="preserve">
<g>
	<g>
		<path d="M394.717,75.189H117.284c-4.498,0-8.143,3.645-8.143,8.143V229.98c0,4.498,3.645,8.143,8.143,8.143h36.615
			c4.498,0,8.143-3.645,8.143-8.143s-3.645-8.143-8.143-8.143h-28.471V91.476h261.147v130.362H189.838
			c-4.498,0-8.143,3.645-8.143,8.143c0,4.498,3.645,8.143,8.143,8.143h204.878c4.498,0,8.143-3.645,8.143-8.143V83.332
			C402.86,78.834,399.215,75.189,394.717,75.189z"/>
	</g>
</g>
<g>
	<g>
		<path d="M436.638,311.743c15.808,0,28.667-12.86,28.667-28.667s-12.86-28.667-28.667-28.667h-1.204V50.758
			c0-4.498-3.645-8.143-8.143-8.143h-53.923c-4.498,0-8.143,3.645-8.143,8.143s3.645,8.143,8.143,8.143h45.78v195.508H92.854V58.901
			h243.444c4.498,0,8.143-3.645,8.143-8.143s-3.645-8.143-8.143-8.143h-48.169V32.128C288.128,14.414,273.716,0,256,0
			c-17.716,0-32.128,14.413-32.128,32.128v10.486H84.71c-4.498,0-8.143,3.645-8.143,8.143v203.651h-1.204
			c-15.808,0-28.667,12.86-28.667,28.667c0,15.807,12.86,28.667,28.667,28.667h91.165l-13.172,24.43H92.048
			c-14.967,0-27.144,12.177-27.144,27.144c0,14.967,12.177,27.144,27.144,27.144h32.037l-43.986,81.581
			c-7.103,13.175-2.164,29.672,11.009,36.774c13.034,7.027,29.757,2.012,36.776-11.009l57.878-107.346h140.477
			c0,0,57.839,107.276,57.878,107.346c7.007,12.996,23.784,18.016,36.775,11.01c13.174-7.103,18.113-23.6,11.01-36.775
			l-43.986-81.581h32.037c14.967,0,27.144-12.177,27.144-27.144c0-14.967-12.177-27.144-27.144-27.144h-61.308l-13.172-24.43
			L436.638,311.743L436.638,311.743z M240.159,32.128c0-8.735,7.106-15.841,15.841-15.841s15.841,7.106,15.841,15.841v10.486
			h-31.683V32.128z M113.549,490.078c-2.803,5.199-9.522,7.202-14.71,4.404c-5.27-2.841-7.245-9.44-4.404-14.71l48.153-89.309
			h24.671C167.259,390.463,113.604,489.975,113.549,490.078z M417.566,479.772c2.841,5.27,0.866,11.869-4.405,14.711
			c-5.216,2.813-11.9,0.807-14.709-4.405l-53.71-99.616h24.671L417.566,479.772z M419.952,352.459
			c5.987,0,10.858,4.872,10.858,10.858c0,5.987-4.871,10.858-10.858,10.858H92.048c-5.987,0-10.858-4.871-10.858-10.858
			c0-5.987,4.871-10.858,10.858-10.858H419.952z M171.86,336.173l13.17-24.429h24.671l-13.17,24.429H171.86z M215.033,336.173
			l13.172-24.43h55.591l13.173,24.43H215.033z M302.3,311.744h24.671l13.17,24.429H315.47L302.3,311.744z M75.363,295.456
			c-6.826,0-12.38-5.554-12.38-12.38c0-6.826,5.554-12.38,12.38-12.38h9.327c0.008,0,0.014,0.001,0.021,0.001h342.58
			c0.008,0,0.014-0.001,0.021-0.001h9.327c6.826,0,12.38,5.554,12.38,12.38c0,6.826-5.554,12.38-12.38,12.38H75.363z"/>
	</g>
</g>
</svg>